<?xml version="1.0" encoding="UTF-8" standalone="yes"?><svg xmlns="http://www.w3.org/2000/svg" xmlns:xlink="http://www.w3.org/1999/xlink" height="774px" style="width:3673px;height:774px;" version="1.1" viewBox="0 0 3673 774" width="3673px"><defs><filter height="300%" id="f1" width="300%" x="-1" y="-1"><feGaussianBlur result="blurOut" stdDeviation="2.0"/><feColorMatrix in="blurOut" result="blurOut2" type="matrix" values="0 0 0 0 0 0 0 0 0 0 0 0 0 0 0 0 0 0 .4 0"/><feOffset dx="4.0" dy="4.0" in="blurOut2" result="blurOut3"/><feBlend in="SourceGraphic" in2="blurOut3" mode="normal"/></filter></defs><g><rect fill="#FFFACD" filter="url(#f1)" height="77.4063" style="stroke: #A80036; stroke-width: 1.5;" width="250" x="139" y="507.5"/><text fill="#000000" font-family="sans-serif" font-size="12" lengthAdjust="spacingAndGlyphs" textLength="40" x="244" y="521.957">Person</text><line style="stroke: #A80036; stroke-width: 1.5;" x1="140" x2="388" y1="526.5938" y2="526.5938"/><text fill="#000000" font-family="sans-serif" font-size="10" lengthAdjust="spacingAndGlyphs" textLength="203" x="145" y="540.9746">nameOfThePerson    : "Shillinglaw, Susan"</text><text fill="#000000" font-family="sans-serif" font-size="10" lengthAdjust="spacingAndGlyphs" textLength="200" x="145" y="553.5527">nameOfThePerson    : "Susan Shillinglaw"</text><text fill="#000000" font-family="sans-serif" font-size="10" lengthAdjust="spacingAndGlyphs" textLength="182" x="145" y="566.1309">identifierForThePerson    : "pauth-050"</text><text fill="#000000" font-family="sans-serif" font-size="10" lengthAdjust="spacingAndGlyphs" textLength="238" x="145" y="578.709">type    : "http://rdaregistry.info/Elements/c/C10004"</text><rect fill="#FFFACD" filter="url(#f1)" height="52.25" style="stroke: #A80036; stroke-width: 1.5;" width="250" x="1026" y="150.5"/><text fill="#000000" font-family="sans-serif" font-size="12" lengthAdjust="spacingAndGlyphs" textLength="62" x="1120" y="164.957">Expression</text><line style="stroke: #A80036; stroke-width: 1.5;" x1="1027" x2="1275" y1="169.5938" y2="169.5938"/><text fill="#000000" font-family="sans-serif" font-size="10" lengthAdjust="spacingAndGlyphs" textLength="138" x="1032" y="183.9746">noteOnExpression    : "[Text]"</text><text fill="#000000" font-family="sans-serif" font-size="10" lengthAdjust="spacingAndGlyphs" textLength="238" x="1032" y="196.5527">type    : "http://rdaregistry.info/Elements/c/C10006"</text><rect fill="#FFFACD" filter="url(#f1)" height="64.8281" style="stroke: #A80036; stroke-width: 1.5;" width="250" x="1881" y="144"/><text fill="#000000" font-family="sans-serif" font-size="12" lengthAdjust="spacingAndGlyphs" textLength="40" x="1986" y="158.457">Person</text><line style="stroke: #A80036; stroke-width: 1.5;" x1="1882" x2="2130" y1="163.0938" y2="163.0938"/><text fill="#000000" font-family="sans-serif" font-size="10" lengthAdjust="spacingAndGlyphs" textLength="204" x="1887" y="177.4746">nameOfThePerson    : "Chretien de Troyes"</text><text fill="#000000" font-family="sans-serif" font-size="10" lengthAdjust="spacingAndGlyphs" textLength="182" x="1887" y="190.0527">identifierForThePerson    : "pauth-004"</text><text fill="#000000" font-family="sans-serif" font-size="10" lengthAdjust="spacingAndGlyphs" textLength="238" x="1887" y="202.6309">type    : "http://rdaregistry.info/Elements/c/C10004"</text><rect fill="#FFFACD" filter="url(#f1)" height="77.4063" style="stroke: #A80036; stroke-width: 1.5;" width="250" x="1448" y="507.5"/><text fill="#000000" font-family="sans-serif" font-size="12" lengthAdjust="spacingAndGlyphs" textLength="40" x="1553" y="521.957">Person</text><line style="stroke: #A80036; stroke-width: 1.5;" x1="1449" x2="1697" y1="526.5938" y2="526.5938"/><text fill="#000000" font-family="sans-serif" font-size="10" lengthAdjust="spacingAndGlyphs" textLength="189" x="1454" y="540.9746">nameOfThePerson    : "Place, Francois"</text><text fill="#000000" font-family="sans-serif" font-size="10" lengthAdjust="spacingAndGlyphs" textLength="186" x="1454" y="553.5527">nameOfThePerson    : "Francois Place"</text><text fill="#000000" font-family="sans-serif" font-size="10" lengthAdjust="spacingAndGlyphs" textLength="182" x="1454" y="566.1309">identifierForThePerson    : "pauth-051"</text><text fill="#000000" font-family="sans-serif" font-size="10" lengthAdjust="spacingAndGlyphs" textLength="238" x="1454" y="578.709">type    : "http://rdaregistry.info/Elements/c/C10004"</text><rect fill="#FFFACD" filter="url(#f1)" height="64.8281" style="stroke: #A80036; stroke-width: 1.5;" width="250" x="2166" y="144"/><text fill="#000000" font-family="sans-serif" font-size="12" lengthAdjust="spacingAndGlyphs" textLength="28" x="2277" y="158.457">Work</text><line style="stroke: #A80036; stroke-width: 1.5;" x1="2167" x2="2415" y1="163.0938" y2="163.0938"/><text fill="#000000" font-family="sans-serif" font-size="10" lengthAdjust="spacingAndGlyphs" textLength="169" x="2172" y="177.4746">identifierForTheWork    : "tauth-003"</text><text fill="#000000" font-family="sans-serif" font-size="10" lengthAdjust="spacingAndGlyphs" textLength="148" x="2172" y="190.0527">titleOfTheWork    : "Philomena"</text><text fill="#000000" font-family="sans-serif" font-size="10" lengthAdjust="spacingAndGlyphs" textLength="238" x="2172" y="202.6309">type    : "http://rdaregistry.info/Elements/c/C10001"</text><rect fill="#FFFACD" filter="url(#f1)" height="52.25" style="stroke: #A80036; stroke-width: 1.5;" width="250" x="275" y="327"/><text fill="#000000" font-family="sans-serif" font-size="12" lengthAdjust="spacingAndGlyphs" textLength="62" x="369" y="341.457">Expression</text><line style="stroke: #A80036; stroke-width: 1.5;" x1="276" x2="524" y1="346.0938" y2="346.0938"/><text fill="#000000" font-family="sans-serif" font-size="10" lengthAdjust="spacingAndGlyphs" textLength="174" x="281" y="360.4746">noteOnExpression    : "[Introduction]"</text><text fill="#000000" font-family="sans-serif" font-size="10" lengthAdjust="spacingAndGlyphs" textLength="238" x="281" y="373.0527">type    : "http://rdaregistry.info/Elements/c/C10006"</text><rect fill="#FFFACD" filter="url(#f1)" height="77.4063" style="stroke: #A80036; stroke-width: 1.5;" width="250" x="6" y="138"/><text fill="#000000" font-family="sans-serif" font-size="12" lengthAdjust="spacingAndGlyphs" textLength="40" x="111" y="152.457">Person</text><line style="stroke: #A80036; stroke-width: 1.5;" x1="7" x2="255" y1="157.0938" y2="157.0938"/><text fill="#000000" font-family="sans-serif" font-size="10" lengthAdjust="spacingAndGlyphs" textLength="191" x="12" y="171.4746">nameOfThePerson    : "Steinbeck, John"</text><text fill="#000000" font-family="sans-serif" font-size="10" lengthAdjust="spacingAndGlyphs" textLength="188" x="12" y="184.0527">nameOfThePerson    : "John Steinbeck"</text><text fill="#000000" font-family="sans-serif" font-size="10" lengthAdjust="spacingAndGlyphs" textLength="182" x="12" y="196.6309">identifierForThePerson    : "pauth-016"</text><text fill="#000000" font-family="sans-serif" font-size="10" lengthAdjust="spacingAndGlyphs" textLength="238" x="12" y="209.209">type    : "http://rdaregistry.info/Elements/c/C10004"</text><rect fill="#FFFACD" filter="url(#f1)" height="52.25" style="stroke: #A80036; stroke-width: 1.5;" width="260" x="2984" y="713"/><text fill="#000000" font-family="sans-serif" font-size="12" lengthAdjust="spacingAndGlyphs" textLength="82" x="3073" y="727.457">CorporateBody</text><line style="stroke: #A80036; stroke-width: 1.5;" x1="2985" x2="3243" y1="732.0938" y2="732.0938"/><text fill="#000000" font-family="sans-serif" font-size="10" lengthAdjust="spacingAndGlyphs" textLength="248" x="2990" y="746.4746">nameOfTheCorporateBody    : "Garnier-Flammarion"</text><text fill="#000000" font-family="sans-serif" font-size="10" lengthAdjust="spacingAndGlyphs" textLength="238" x="2990" y="759.0527">type    : "http://rdaregistry.info/Elements/c/C10005"</text><rect fill="#FFFACD" filter="url(#f1)" height="52.25" style="stroke: #A80036; stroke-width: 1.5;" width="250" x="291" y="150.5"/><text fill="#000000" font-family="sans-serif" font-size="12" lengthAdjust="spacingAndGlyphs" textLength="28" x="402" y="164.957">Work</text><line style="stroke: #A80036; stroke-width: 1.5;" x1="292" x2="540" y1="169.5938" y2="169.5938"/><text fill="#000000" font-family="sans-serif" font-size="10" lengthAdjust="spacingAndGlyphs" textLength="159" x="297" y="183.9746">titleOfTheWork    : "[Introduction]"</text><text fill="#000000" font-family="sans-serif" font-size="10" lengthAdjust="spacingAndGlyphs" textLength="238" x="297" y="196.5527">type    : "http://rdaregistry.info/Elements/c/C10001"</text><rect fill="#FFFACD" filter="url(#f1)" height="52.25" style="stroke: #A80036; stroke-width: 1.5;" width="250" x="2374" y="245"/><text fill="#000000" font-family="sans-serif" font-size="12" lengthAdjust="spacingAndGlyphs" textLength="62" x="2468" y="259.457">Expression</text><line style="stroke: #A80036; stroke-width: 1.5;" x1="2375" x2="2623" y1="264.0938" y2="264.0938"/><text fill="#000000" font-family="sans-serif" font-size="10" lengthAdjust="spacingAndGlyphs" textLength="165" x="2380" y="278.4746">languageOfExpression    : "French"</text><text fill="#000000" font-family="sans-serif" font-size="10" lengthAdjust="spacingAndGlyphs" textLength="238" x="2380" y="291.0527">type    : "http://rdaregistry.info/Elements/c/C10006"</text><rect fill="#FFFACD" filter="url(#f1)" height="52.25" style="stroke: #A80036; stroke-width: 1.5;" width="250" x="1026" y="713"/><text fill="#000000" font-family="sans-serif" font-size="12" lengthAdjust="spacingAndGlyphs" textLength="82" x="1110" y="727.457">CorporateBody</text><line style="stroke: #A80036; stroke-width: 1.5;" x1="1027" x2="1275" y1="732.0938" y2="732.0938"/><text fill="#000000" font-family="sans-serif" font-size="10" lengthAdjust="spacingAndGlyphs" textLength="200" x="1032" y="746.4746">nameOfTheCorporateBody    : "Gallimard"</text><text fill="#000000" font-family="sans-serif" font-size="10" lengthAdjust="spacingAndGlyphs" textLength="238" x="1032" y="759.0527">type    : "http://rdaregistry.info/Elements/c/C10005"</text><rect fill="#FFFACD" filter="url(#f1)" height="152.875" style="stroke: #A80036; stroke-width: 1.5;" width="529" x="2849.5" y="469.5"/><text fill="#000000" font-family="sans-serif" font-size="12" lengthAdjust="spacingAndGlyphs" textLength="73" x="3077.5" y="483.957">Manifestation</text><line style="stroke: #A80036; stroke-width: 1.5;" x1="2850.5" x2="3377.5" y1="488.5938" y2="488.5938"/><text fill="#000000" font-family="sans-serif" font-size="10" lengthAdjust="spacingAndGlyphs" textLength="104" x="2855.5" y="502.9746">extent    : "443 pages"</text><text fill="#000000" font-family="sans-serif" font-size="10" lengthAdjust="spacingAndGlyphs" textLength="137" x="2855.5" y="515.5527">dateOfPublication    : "1969"</text><text fill="#000000" font-family="sans-serif" font-size="10" lengthAdjust="spacingAndGlyphs" textLength="236" x="2855.5" y="528.1309">noteOnCarrier    : "Cover with colorful illustrations"</text><text fill="#000000" font-family="sans-serif" font-size="10" lengthAdjust="spacingAndGlyphs" textLength="109" x="2855.5" y="540.709">dimensions    : "18 cm"</text><text fill="#000000" font-family="sans-serif" font-size="10" lengthAdjust="spacingAndGlyphs" textLength="238" x="2855.5" y="553.2871">type    : "http://rdaregistry.info/Elements/c/C10007"</text><text fill="#000000" font-family="sans-serif" font-size="10" lengthAdjust="spacingAndGlyphs" textLength="72" x="2855.5" y="565.8652">title    : "Essais"</text><text fill="#000000" font-family="sans-serif" font-size="10" lengthAdjust="spacingAndGlyphs" textLength="256" x="2855.5" y="578.4434">identifierForTheManifestation    : "978-2-08-070210-4"</text><text fill="#000000" font-family="sans-serif" font-size="10" lengthAdjust="spacingAndGlyphs" textLength="142" x="2855.5" y="591.0215">placeOfPublication    : "Paris"</text><text fill="#000000" font-family="sans-serif" font-size="10" lengthAdjust="spacingAndGlyphs" textLength="517" x="2855.5" y="603.5996">statementOfResponsibilityRelatingToTitleProper    : "Michel de Montaigne; Introduction by Alexandre Micha"</text><text fill="#000000" font-family="sans-serif" font-size="10" lengthAdjust="spacingAndGlyphs" textLength="160" x="2855.5" y="616.1777">termsOfAvailability    : "5.80 euro"</text><rect fill="#FFFACD" filter="url(#f1)" height="52.25" style="stroke: #A80036; stroke-width: 1.5;" width="250" x="2268" y="8"/><text fill="#000000" font-family="sans-serif" font-size="12" lengthAdjust="spacingAndGlyphs" textLength="28" x="2379" y="22.457">Work</text><line style="stroke: #A80036; stroke-width: 1.5;" x1="2269" x2="2517" y1="27.0938" y2="27.0938"/><text fill="#000000" font-family="sans-serif" font-size="10" lengthAdjust="spacingAndGlyphs" textLength="134" x="2274" y="41.4746">titleOfTheWork    : "Romans"</text><text fill="#000000" font-family="sans-serif" font-size="10" lengthAdjust="spacingAndGlyphs" textLength="238" x="2274" y="54.0527">type    : "http://rdaregistry.info/Elements/c/C10001"</text><rect fill="#FFFACD" filter="url(#f1)" height="52.25" style="stroke: #A80036; stroke-width: 1.5;" width="279" x="2522.5" y="150.5"/><text fill="#000000" font-family="sans-serif" font-size="12" lengthAdjust="spacingAndGlyphs" textLength="46" x="2639" y="164.957">Concept</text><line style="stroke: #A80036; stroke-width: 1.5;" x1="2523.5" x2="2800.5" y1="169.5938" y2="169.5938"/><text fill="#000000" font-family="sans-serif" font-size="10" lengthAdjust="spacingAndGlyphs" textLength="267" x="2528.5" y="183.9746">hasTermForTheConcept    : "Romans de la Table ronde"</text><text fill="#000000" font-family="sans-serif" font-size="10" lengthAdjust="spacingAndGlyphs" textLength="254" x="2528.5" y="196.5527">type    : "http://iflastandards.info/ns/fr/frbr/frbrer/C1007"</text><rect fill="#FFFACD" filter="url(#f1)" height="64.8281" style="stroke: #A80036; stroke-width: 1.5;" width="250" x="1311" y="144"/><text fill="#000000" font-family="sans-serif" font-size="12" lengthAdjust="spacingAndGlyphs" textLength="40" x="1416" y="158.457">Person</text><line style="stroke: #A80036; stroke-width: 1.5;" x1="1312" x2="1560" y1="163.0938" y2="163.0938"/><text fill="#000000" font-family="sans-serif" font-size="10" lengthAdjust="spacingAndGlyphs" textLength="226" x="1317" y="177.4746">nameOfThePerson    : "Robert Louis Stevenson"</text><text fill="#000000" font-family="sans-serif" font-size="10" lengthAdjust="spacingAndGlyphs" textLength="182" x="1317" y="190.0527">identifierForThePerson    : "pauth-003"</text><text fill="#000000" font-family="sans-serif" font-size="10" lengthAdjust="spacingAndGlyphs" textLength="238" x="1317" y="202.6309">type    : "http://rdaregistry.info/Elements/c/C10004"</text><rect fill="#FFFACD" filter="url(#f1)" height="178.0313" style="stroke: #A80036; stroke-width: 1.5;" width="430" x="424" y="457"/><text fill="#000000" font-family="sans-serif" font-size="12" lengthAdjust="spacingAndGlyphs" textLength="73" x="602.5" y="471.457">Manifestation</text><line style="stroke: #A80036; stroke-width: 1.5;" x1="425" x2="853" y1="476.0938" y2="476.0938"/><text fill="#000000" font-family="sans-serif" font-size="10" lengthAdjust="spacingAndGlyphs" textLength="137" x="430" y="490.4746">dateOfPublication    : "2010"</text><text fill="#000000" font-family="sans-serif" font-size="10" lengthAdjust="spacingAndGlyphs" textLength="151" x="430" y="503.0527">termsOfAvailability    : "10 euro"</text><text fill="#000000" font-family="sans-serif" font-size="10" lengthAdjust="spacingAndGlyphs" textLength="109" x="430" y="515.6309">dimensions    : "20 cm"</text><text fill="#000000" font-family="sans-serif" font-size="10" lengthAdjust="spacingAndGlyphs" textLength="102" x="430" y="528.209">carrierType    : "book"</text><text fill="#000000" font-family="sans-serif" font-size="10" lengthAdjust="spacingAndGlyphs" textLength="191" x="430" y="540.7871">placeOfPublication    : "Harmondsworth"</text><text fill="#000000" font-family="sans-serif" font-size="10" lengthAdjust="spacingAndGlyphs" textLength="244" x="430" y="553.3652">identifierForTheManifestation    : "9780141185101"</text><text fill="#000000" font-family="sans-serif" font-size="10" lengthAdjust="spacingAndGlyphs" textLength="418" x="430" y="565.9434">statementOfResponsibilityRelatingToTitleProper    : "John Steinbeck; Susan Shillinglaw"</text><text fill="#000000" font-family="sans-serif" font-size="10" lengthAdjust="spacingAndGlyphs" textLength="127" x="430" y="578.5215">title    : "Of mice and men"</text><text fill="#000000" font-family="sans-serif" font-size="10" lengthAdjust="spacingAndGlyphs" textLength="256" x="430" y="591.0996">identifierForTheManifestation    : "978-0-14-118510-1"</text><text fill="#000000" font-family="sans-serif" font-size="10" lengthAdjust="spacingAndGlyphs" textLength="179" x="430" y="603.6777">placeOfPublication    : "Great Britain"</text><text fill="#000000" font-family="sans-serif" font-size="10" lengthAdjust="spacingAndGlyphs" textLength="104" x="430" y="616.2559">extent    : "105 pages"</text><text fill="#000000" font-family="sans-serif" font-size="10" lengthAdjust="spacingAndGlyphs" textLength="238" x="430" y="628.834">type    : "http://rdaregistry.info/Elements/c/C10007"</text><rect fill="#FFFACD" filter="url(#f1)" height="64.8281" style="stroke: #A80036; stroke-width: 1.5;" width="250" x="2837" y="144"/><text fill="#000000" font-family="sans-serif" font-size="12" lengthAdjust="spacingAndGlyphs" textLength="40" x="2942" y="158.457">Person</text><line style="stroke: #A80036; stroke-width: 1.5;" x1="2838" x2="3086" y1="163.0938" y2="163.0938"/><text fill="#000000" font-family="sans-serif" font-size="10" lengthAdjust="spacingAndGlyphs" textLength="217" x="2843" y="177.4746">nameOfThePerson    : "Michel de Montaigne"</text><text fill="#000000" font-family="sans-serif" font-size="10" lengthAdjust="spacingAndGlyphs" textLength="182" x="2843" y="190.0527">identifierForThePerson    : "pauth-007"</text><text fill="#000000" font-family="sans-serif" font-size="10" lengthAdjust="spacingAndGlyphs" textLength="238" x="2843" y="202.6309">type    : "http://rdaregistry.info/Elements/c/C10004"</text><rect fill="#FFFACD" filter="url(#f1)" height="52.25" style="stroke: #A80036; stroke-width: 1.5;" width="250" x="1596" y="150.5"/><text fill="#000000" font-family="sans-serif" font-size="12" lengthAdjust="spacingAndGlyphs" textLength="28" x="1707" y="164.957">Work</text><line style="stroke: #A80036; stroke-width: 1.5;" x1="1597" x2="1845" y1="169.5938" y2="169.5938"/><text fill="#000000" font-family="sans-serif" font-size="10" lengthAdjust="spacingAndGlyphs" textLength="155" x="1602" y="183.9746">titleOfTheWork    : "[Illustrations]"</text><text fill="#000000" font-family="sans-serif" font-size="10" lengthAdjust="spacingAndGlyphs" textLength="238" x="1602" y="196.5527">type    : "http://rdaregistry.info/Elements/c/C10001"</text><rect fill="#FFFACD" filter="url(#f1)" height="52.25" style="stroke: #A80036; stroke-width: 1.5;" width="307" x="1282.5" y="8"/><text fill="#000000" font-family="sans-serif" font-size="12" lengthAdjust="spacingAndGlyphs" textLength="28" x="1422" y="22.457">Work</text><line style="stroke: #A80036; stroke-width: 1.5;" x1="1283.5" x2="1588.5" y1="27.0938" y2="27.0938"/><text fill="#000000" font-family="sans-serif" font-size="10" lengthAdjust="spacingAndGlyphs" textLength="295" x="1288.5" y="41.4746">titleOfTheWork    : "Etrange cas du Dr Jekyll et de M. Hyde (L')"</text><text fill="#000000" font-family="sans-serif" font-size="10" lengthAdjust="spacingAndGlyphs" textLength="238" x="1288.5" y="54.0527">type    : "http://rdaregistry.info/Elements/c/C10001"</text><rect fill="#FFFACD" filter="url(#f1)" height="165.4531" style="stroke: #A80036; stroke-width: 1.5;" width="355" x="2211.5" y="463.5"/><text fill="#000000" font-family="sans-serif" font-size="12" lengthAdjust="spacingAndGlyphs" textLength="73" x="2352.5" y="477.957">Manifestation</text><line style="stroke: #A80036; stroke-width: 1.5;" x1="2212.5" x2="2565.5" y1="482.5938" y2="482.5938"/><text fill="#000000" font-family="sans-serif" font-size="10" lengthAdjust="spacingAndGlyphs" textLength="137" x="2217.5" y="496.9746">dateOfPublication    : "1994"</text><text fill="#000000" font-family="sans-serif" font-size="10" lengthAdjust="spacingAndGlyphs" textLength="343" x="2217.5" y="509.5527">statementOfResponsibilityRelatingToTitleProper    : "Chretien de Troyes"</text><text fill="#000000" font-family="sans-serif" font-size="10" lengthAdjust="spacingAndGlyphs" textLength="110" x="2217.5" y="522.1309">extent    : "1279 pages"</text><text fill="#000000" font-family="sans-serif" font-size="10" lengthAdjust="spacingAndGlyphs" textLength="238" x="2217.5" y="534.709">type    : "http://rdaregistry.info/Elements/c/C10007"</text><text fill="#000000" font-family="sans-serif" font-size="10" lengthAdjust="spacingAndGlyphs" textLength="109" x="2217.5" y="547.2871">dimensions    : "19 cm"</text><text fill="#000000" font-family="sans-serif" font-size="10" lengthAdjust="spacingAndGlyphs" textLength="235" x="2217.5" y="559.8652">identifierForTheManifestation    : "2-253-13222-5"</text><text fill="#000000" font-family="sans-serif" font-size="10" lengthAdjust="spacingAndGlyphs" textLength="157" x="2217.5" y="572.4434">termsOfAvailability    : "120,00 F"</text><text fill="#000000" font-family="sans-serif" font-size="10" lengthAdjust="spacingAndGlyphs" textLength="82" x="2217.5" y="585.0215">title    : "Romans"</text><text fill="#000000" font-family="sans-serif" font-size="10" lengthAdjust="spacingAndGlyphs" textLength="236" x="2217.5" y="597.5996">noteOnCarrier    : "Cover with colorful illustrations"</text><text fill="#000000" font-family="sans-serif" font-size="10" lengthAdjust="spacingAndGlyphs" textLength="247" x="2217.5" y="610.1777">otherTitleInformation    : "in appendice, Philomena"</text><text fill="#000000" font-family="sans-serif" font-size="10" lengthAdjust="spacingAndGlyphs" textLength="142" x="2217.5" y="622.7559">placeOfPublication    : "Paris"</text><rect fill="#FFFACD" filter="url(#f1)" height="52.25" style="stroke: #A80036; stroke-width: 1.5;" width="250" x="1396" y="327"/><text fill="#000000" font-family="sans-serif" font-size="12" lengthAdjust="spacingAndGlyphs" textLength="62" x="1490" y="341.457">Expression</text><line style="stroke: #A80036; stroke-width: 1.5;" x1="1397" x2="1645" y1="346.0938" y2="346.0938"/><text fill="#000000" font-family="sans-serif" font-size="10" lengthAdjust="spacingAndGlyphs" textLength="170" x="1402" y="360.4746">noteOnExpression    : "[Illustrations]"</text><text fill="#000000" font-family="sans-serif" font-size="10" lengthAdjust="spacingAndGlyphs" textLength="238" x="1402" y="373.0527">type    : "http://rdaregistry.info/Elements/c/C10006"</text><rect fill="#FFFACD" filter="url(#f1)" height="52.25" style="stroke: #A80036; stroke-width: 1.5;" width="250" x="2998" y="245"/><text fill="#000000" font-family="sans-serif" font-size="12" lengthAdjust="spacingAndGlyphs" textLength="62" x="3092" y="259.457">Expression</text><line style="stroke: #A80036; stroke-width: 1.5;" x1="2999" x2="3247" y1="264.0938" y2="264.0938"/><text fill="#000000" font-family="sans-serif" font-size="10" lengthAdjust="spacingAndGlyphs" textLength="165" x="3004" y="278.4746">languageOfExpression    : "French"</text><text fill="#000000" font-family="sans-serif" font-size="10" lengthAdjust="spacingAndGlyphs" textLength="238" x="3004" y="291.0527">type    : "http://rdaregistry.info/Elements/c/C10006"</text><rect fill="#FFFACD" filter="url(#f1)" height="52.25" style="stroke: #A80036; stroke-width: 1.5;" width="300" x="2239" y="713"/><text fill="#000000" font-family="sans-serif" font-size="12" lengthAdjust="spacingAndGlyphs" textLength="82" x="2348" y="727.457">CorporateBody</text><line style="stroke: #A80036; stroke-width: 1.5;" x1="2240" x2="2538" y1="732.0938" y2="732.0938"/><text fill="#000000" font-family="sans-serif" font-size="10" lengthAdjust="spacingAndGlyphs" textLength="288" x="2245" y="746.4746">nameOfTheCorporateBody    : "Librairie Generale Francaise"</text><text fill="#000000" font-family="sans-serif" font-size="10" lengthAdjust="spacingAndGlyphs" textLength="238" x="2245" y="759.0527">type    : "http://rdaregistry.info/Elements/c/C10005"</text><rect fill="#FFFACD" filter="url(#f1)" height="52.25" style="stroke: #A80036; stroke-width: 1.5;" width="250" x="3015" y="8"/><text fill="#000000" font-family="sans-serif" font-size="12" lengthAdjust="spacingAndGlyphs" textLength="28" x="3126" y="22.457">Work</text><line style="stroke: #A80036; stroke-width: 1.5;" x1="3016" x2="3264" y1="27.0938" y2="27.0938"/><text fill="#000000" font-family="sans-serif" font-size="10" lengthAdjust="spacingAndGlyphs" textLength="124" x="3021" y="41.4746">titleOfTheWork    : "Essais"</text><text fill="#000000" font-family="sans-serif" font-size="10" lengthAdjust="spacingAndGlyphs" textLength="238" x="3021" y="54.0527">type    : "http://rdaregistry.info/Elements/c/C10001"</text><rect fill="#FFFACD" filter="url(#f1)" height="52.25" style="stroke: #A80036; stroke-width: 1.5;" width="250" x="514" y="245"/><text fill="#000000" font-family="sans-serif" font-size="12" lengthAdjust="spacingAndGlyphs" textLength="62" x="608" y="259.457">Expression</text><line style="stroke: #A80036; stroke-width: 1.5;" x1="515" x2="763" y1="264.0938" y2="264.0938"/><text fill="#000000" font-family="sans-serif" font-size="10" lengthAdjust="spacingAndGlyphs" textLength="167" x="520" y="278.4746">languageOfExpression    : "English"</text><text fill="#000000" font-family="sans-serif" font-size="10" lengthAdjust="spacingAndGlyphs" textLength="238" x="520" y="291.0527">type    : "http://rdaregistry.info/Elements/c/C10006"</text><rect fill="#FFFACD" filter="url(#f1)" height="152.875" style="stroke: #A80036; stroke-width: 1.5;" width="524" x="889" y="469.5"/><text fill="#000000" font-family="sans-serif" font-size="12" lengthAdjust="spacingAndGlyphs" textLength="73" x="1114.5" y="483.957">Manifestation</text><line style="stroke: #A80036; stroke-width: 1.5;" x1="890" x2="1412" y1="488.5938" y2="488.5938"/><text fill="#000000" font-family="sans-serif" font-size="10" lengthAdjust="spacingAndGlyphs" textLength="294" x="895" y="502.9746">noteOnCarrier    : "Illustrations, cover with colorful illustrations"</text><text fill="#000000" font-family="sans-serif" font-size="10" lengthAdjust="spacingAndGlyphs" textLength="238" x="895" y="515.5527">type    : "http://rdaregistry.info/Elements/c/C10007"</text><text fill="#000000" font-family="sans-serif" font-size="10" lengthAdjust="spacingAndGlyphs" textLength="256" x="895" y="528.1309">identifierForTheManifestation    : "978-2-07-062231-3"</text><text fill="#000000" font-family="sans-serif" font-size="10" lengthAdjust="spacingAndGlyphs" textLength="243" x="895" y="540.709">title    : "Etrange cas du Dr Jekyll et de M. Hyde (L')"</text><text fill="#000000" font-family="sans-serif" font-size="10" lengthAdjust="spacingAndGlyphs" textLength="142" x="895" y="553.2871">placeOfPublication    : "Paris"</text><text fill="#000000" font-family="sans-serif" font-size="10" lengthAdjust="spacingAndGlyphs" textLength="109" x="895" y="565.8652">dimensions    : "18 cm"</text><text fill="#000000" font-family="sans-serif" font-size="10" lengthAdjust="spacingAndGlyphs" textLength="160" x="895" y="578.4434">termsOfAvailability    : "5.80 euro"</text><text fill="#000000" font-family="sans-serif" font-size="10" lengthAdjust="spacingAndGlyphs" textLength="512" x="895" y="591.0215">statementOfResponsibilityRelatingToTitleProper    : "Robert Louis Stevenson; illustrations by Francois Place"</text><text fill="#000000" font-family="sans-serif" font-size="10" lengthAdjust="spacingAndGlyphs" textLength="137" x="895" y="603.5996">dateOfPublication    : "2008"</text><text fill="#000000" font-family="sans-serif" font-size="10" lengthAdjust="spacingAndGlyphs" textLength="104" x="895" y="616.1777">extent    : "144 pages"</text><rect fill="#FFFACD" filter="url(#f1)" height="52.25" style="stroke: #A80036; stroke-width: 1.5;" width="250" x="514" y="713"/><text fill="#000000" font-family="sans-serif" font-size="12" lengthAdjust="spacingAndGlyphs" textLength="82" x="598" y="727.457">CorporateBody</text><line style="stroke: #A80036; stroke-width: 1.5;" x1="515" x2="763" y1="732.0938" y2="732.0938"/><text fill="#000000" font-family="sans-serif" font-size="10" lengthAdjust="spacingAndGlyphs" textLength="222" x="520" y="746.4746">nameOfTheCorporateBody    : "Penguin books"</text><text fill="#000000" font-family="sans-serif" font-size="10" lengthAdjust="spacingAndGlyphs" textLength="238" x="520" y="759.0527">type    : "http://rdaregistry.info/Elements/c/C10005"</text><rect fill="#FFFACD" filter="url(#f1)" height="77.4063" style="stroke: #A80036; stroke-width: 1.5;" width="250" x="3414" y="507.5"/><text fill="#000000" font-family="sans-serif" font-size="12" lengthAdjust="spacingAndGlyphs" textLength="40" x="3519" y="521.957">Person</text><line style="stroke: #A80036; stroke-width: 1.5;" x1="3415" x2="3663" y1="526.5938" y2="526.5938"/><text fill="#000000" font-family="sans-serif" font-size="10" lengthAdjust="spacingAndGlyphs" textLength="199" x="3420" y="540.9746">nameOfThePerson    : "Micha, Alexandre"</text><text fill="#000000" font-family="sans-serif" font-size="10" lengthAdjust="spacingAndGlyphs" textLength="196" x="3420" y="553.5527">nameOfThePerson    : "Alexandre Micha"</text><text fill="#000000" font-family="sans-serif" font-size="10" lengthAdjust="spacingAndGlyphs" textLength="182" x="3420" y="566.1309">identifierForThePerson    : "pauth-028"</text><text fill="#000000" font-family="sans-serif" font-size="10" lengthAdjust="spacingAndGlyphs" textLength="238" x="3420" y="578.709">type    : "http://rdaregistry.info/Elements/c/C10004"</text><rect fill="#FFFACD" filter="url(#f1)" height="52.25" style="stroke: #A80036; stroke-width: 1.5;" width="250" x="3306" y="327"/><text fill="#000000" font-family="sans-serif" font-size="12" lengthAdjust="spacingAndGlyphs" textLength="62" x="3400" y="341.457">Expression</text><line style="stroke: #A80036; stroke-width: 1.5;" x1="3307" x2="3555" y1="346.0938" y2="346.0938"/><text fill="#000000" font-family="sans-serif" font-size="10" lengthAdjust="spacingAndGlyphs" textLength="174" x="3312" y="360.4746">noteOnExpression    : "[Introduction]"</text><text fill="#000000" font-family="sans-serif" font-size="10" lengthAdjust="spacingAndGlyphs" textLength="238" x="3312" y="373.0527">type    : "http://rdaregistry.info/Elements/c/C10006"</text><rect fill="#FFFACD" filter="url(#f1)" height="52.25" style="stroke: #A80036; stroke-width: 1.5;" width="250" x="3202" y="150.5"/><text fill="#000000" font-family="sans-serif" font-size="12" lengthAdjust="spacingAndGlyphs" textLength="28" x="3313" y="164.957">Work</text><line style="stroke: #A80036; stroke-width: 1.5;" x1="3203" x2="3451" y1="169.5938" y2="169.5938"/><text fill="#000000" font-family="sans-serif" font-size="10" lengthAdjust="spacingAndGlyphs" textLength="159" x="3208" y="183.9746">titleOfTheWork    : "[Introduction]"</text><text fill="#000000" font-family="sans-serif" font-size="10" lengthAdjust="spacingAndGlyphs" textLength="238" x="3208" y="196.5527">type    : "http://rdaregistry.info/Elements/c/C10001"</text><rect fill="#FFFACD" filter="url(#f1)" height="52.25" style="stroke: #A80036; stroke-width: 1.5;" width="250" x="291" y="8"/><text fill="#000000" font-family="sans-serif" font-size="12" lengthAdjust="spacingAndGlyphs" textLength="28" x="402" y="22.457">Work</text><line style="stroke: #A80036; stroke-width: 1.5;" x1="292" x2="540" y1="27.0938" y2="27.0938"/><text fill="#000000" font-family="sans-serif" font-size="10" lengthAdjust="spacingAndGlyphs" textLength="179" x="297" y="41.4746">titleOfTheWork    : "Of mice and men"</text><text fill="#000000" font-family="sans-serif" font-size="10" lengthAdjust="spacingAndGlyphs" textLength="238" x="297" y="54.0527">type    : "http://rdaregistry.info/Elements/c/C10001"</text><rect fill="#FFFACD" filter="url(#f1)" height="52.25" style="stroke: #A80036; stroke-width: 1.5;" width="250" x="2146" y="327"/><text fill="#000000" font-family="sans-serif" font-size="12" lengthAdjust="spacingAndGlyphs" textLength="62" x="2240" y="341.457">Expression</text><line style="stroke: #A80036; stroke-width: 1.5;" x1="2147" x2="2395" y1="346.0938" y2="346.0938"/><text fill="#000000" font-family="sans-serif" font-size="10" lengthAdjust="spacingAndGlyphs" textLength="169" x="2152" y="360.4746">noteOnExpression    : "[Philomena]"</text><text fill="#000000" font-family="sans-serif" font-size="10" lengthAdjust="spacingAndGlyphs" textLength="238" x="2152" y="373.0527">type    : "http://rdaregistry.info/Elements/c/C10006"</text><path d="M1204.01,202.502 C1272.74,234.915 1392.18,291.245 1463.18,324.731 " fill="none" style="stroke: #A80036; stroke-width: 1.0;"/><polygon fill="#A80036" points="1467.79,326.903,1461.351,319.4506,1463.2662,324.7733,1457.9435,326.6886,1467.79,326.903" style="stroke: #A80036; stroke-width: 1.0;"/><text fill="#000000" font-family="sans-serif" font-size="13" lengthAdjust="spacingAndGlyphs" textLength="131" x="1403" y="276.4951">illustrationsExpression</text><path d="M1151,202.76 C1151,255.759 1151,380.547 1151,463.879 " fill="none" style="stroke: #A80036; stroke-width: 1.0;"/><polygon fill="#A80036" points="1151,469.306,1155,460.306,1151,464.306,1147,460.306,1151,469.306" style="stroke: #A80036; stroke-width: 1.0;"/><text fill="#000000" font-family="sans-serif" font-size="13" lengthAdjust="spacingAndGlyphs" textLength="155" x="1152" y="358.4951">manifestationOfExpression</text><path d="M2264.94,209.238 C2257.67,219.946 2250.75,232.395 2247,245 C2240.42,267.154 2242.28,274.376 2247,297 C2248.76,305.446 2251.9,314.182 2255.33,322.138 " fill="none" style="stroke: #A80036; stroke-width: 1.0;"/><polygon fill="#A80036" points="2257.5,326.982,2257.4711,317.1332,2255.4559,322.4189,2250.1702,320.4037,2257.5,326.982" style="stroke: #A80036; stroke-width: 1.0;"/><text fill="#000000" font-family="sans-serif" font-size="13" lengthAdjust="spacingAndGlyphs" textLength="107" x="2248" y="276.4951">expressionOfWork</text><path d="M416.01,379.075 C426.309,394.037 440.612,412.82 456,427 C466.027,436.24 476.862,445.219 488.078,453.827 " fill="none" style="stroke: #A80036; stroke-width: 1.0;"/><polygon fill="#A80036" points="492.226,456.982,487.4821,448.3509,488.2456,453.956,482.6405,454.7195,492.226,456.982" style="stroke: #A80036; stroke-width: 1.0;"/><text fill="#000000" font-family="sans-serif" font-size="13" lengthAdjust="spacingAndGlyphs" textLength="155" x="457" y="423.4951">manifestationOfExpression</text><path d="M317.866,379.041 C304.053,386.636 291.227,396.427 282,409 C262.499,435.572 258.822,473.157 259.559,502.084 " fill="none" style="stroke: #A80036; stroke-width: 1.0;"/><polygon fill="#A80036" points="259.745,507.38,263.4263,498.245,259.5693,502.3831,255.4312,498.5261,259.745,507.38" style="stroke: #A80036; stroke-width: 1.0;"/><text fill="#000000" font-family="sans-serif" font-size="13" lengthAdjust="spacingAndGlyphs" textLength="111" x="283" y="423.4951">writerOfIntroduction</text><path d="M402.295,202.662 C396.323,215.028 390.007,230.383 387,245 C381.729,270.623 386.091,300.168 391.137,321.712 " fill="none" style="stroke: #A80036; stroke-width: 1.0;"/><polygon fill="#A80036" points="392.36,326.733,394.1175,317.0422,391.1773,321.8749,386.3446,318.9346,392.36,326.733" style="stroke: #A80036; stroke-width: 1.0;"/><text fill="#000000" font-family="sans-serif" font-size="13" lengthAdjust="spacingAndGlyphs" textLength="107" x="388" y="276.4951">expressionOfWork</text><path d="M2496.51,297.273 C2492.77,328.674 2484.11,383.43 2466,427 C2461.56,437.673 2456.14,448.426 2450.25,458.865 " fill="none" style="stroke: #A80036; stroke-width: 1.0;"/><polygon fill="#A80036" points="2447.7,463.319,2455.6438,457.497,2450.1848,458.9802,2448.7016,453.5212,2447.7,463.319" style="stroke: #A80036; stroke-width: 1.0;"/><text fill="#000000" font-family="sans-serif" font-size="13" lengthAdjust="spacingAndGlyphs" textLength="155" x="2494" y="358.4951">manifestationOfExpression</text><path d="M3114,622.763 C3114,652.586 3114,685.0947 3114,707.957 " fill="none" style="stroke: #A80036; stroke-width: 1.0;"/><polygon fill="#A80036" points="3114,712.9734,3118,703.9734,3114,707.9734,3110,703.9734,3114,712.9734" style="stroke: #A80036; stroke-width: 1.0;"/><text fill="#000000" font-family="sans-serif" font-size="13" lengthAdjust="spacingAndGlyphs" textLength="52" x="3115" y="679.4951">publisher</text><path d="M2366.85,60.216 C2358.16,69.221 2348.72,79.696 2341,90 C2329.5,105.337 2318.54,123.528 2309.82,139.18 " fill="none" style="stroke: #A80036; stroke-width: 1.0;"/><polygon fill="#A80036" points="2307.19,143.95,2315.0344,137.9947,2309.6012,139.5698,2308.0261,134.1367,2307.19,143.95" style="stroke: #A80036; stroke-width: 1.0;"/><text fill="#000000" font-family="sans-serif" font-size="13" lengthAdjust="spacingAndGlyphs" textLength="83" x="2342" y="104.4951">appendixWork</text><path d="M2518.15,59.449 C2541.73,67.107 2565.42,77.073 2586,90 C2608.83,104.339 2628.81,127.509 2642.55,146.114 " fill="none" style="stroke: #A80036; stroke-width: 1.0;"/><polygon fill="#A80036" points="2645.56,150.251,2643.4996,140.6201,2642.6184,146.2079,2637.0306,145.3267,2645.56,150.251" style="stroke: #A80036; stroke-width: 1.0;"/><text fill="#000000" font-family="sans-serif" font-size="13" lengthAdjust="spacingAndGlyphs" textLength="129" x="2610" y="104.4951">hasAsSubjectConcept</text><path d="M2323.81,60.119 C2260.75,83.012 2167.15,116.994 2097.85,142.155 " fill="none" style="stroke: #A80036; stroke-width: 1.0;"/><polygon fill="#A80036" points="2092.9,143.951,2102.7258,144.6249,2097.5973,142.2377,2099.9845,137.1092,2092.9,143.951" style="stroke: #A80036; stroke-width: 1.0;"/><text fill="#000000" font-family="sans-serif" font-size="13" lengthAdjust="spacingAndGlyphs" textLength="40" x="2236" y="104.4951">creator</text><path d="M2411.56,60.003 C2417.89,69.161 2424.69,79.788 2430,90 C2456.18,140.386 2477.96,203.044 2489.68,239.579 " fill="none" style="stroke: #A80036; stroke-width: 1.0;"/><polygon fill="#A80036" points="2491.34,244.775,2492.4163,234.9851,2489.8208,240.0114,2484.7945,237.4159,2491.34,244.775" style="stroke: #A80036; stroke-width: 1.0;"/><text fill="#000000" font-family="sans-serif" font-size="13" lengthAdjust="spacingAndGlyphs" textLength="107" x="2440" y="104.4951">expressionOfWork</text><path d="M639,635.232 C639,661.253 639,687.9972 639,707.6784 " fill="none" style="stroke: #A80036; stroke-width: 1.0;"/><polygon fill="#A80036" points="639,712.7799,643,703.7799,639,707.7799,635,703.7799,639,712.7799" style="stroke: #A80036; stroke-width: 1.0;"/><text fill="#000000" font-family="sans-serif" font-size="13" lengthAdjust="spacingAndGlyphs" textLength="52" x="640" y="679.4951">publisher</text><path d="M1692.34,202.502 C1655.77,234.417 1592.61,289.519 1554.04,323.171 " fill="none" style="stroke: #A80036; stroke-width: 1.0;"/><polygon fill="#A80036" points="1549.93,326.762,1559.3418,323.8607,1553.6981,323.4754,1554.0833,317.8317,1549.93,326.762" style="stroke: #A80036; stroke-width: 1.0;"/><text fill="#000000" font-family="sans-serif" font-size="13" lengthAdjust="spacingAndGlyphs" textLength="107" x="1640" y="276.4951">expressionOfWork</text><path d="M1486.95,60.119 C1537.15,84.866 1613.64,122.573 1665.39,148.086 " fill="none" style="stroke: #A80036; stroke-width: 1.0;"/><polygon fill="#A80036" points="1670.01,150.362,1663.7112,142.7907,1665.5268,148.1482,1660.1692,149.9638,1670.01,150.362" style="stroke: #A80036; stroke-width: 1.0;"/><text fill="#000000" font-family="sans-serif" font-size="13" lengthAdjust="spacingAndGlyphs" textLength="111" x="1580" y="104.4951">augmentedByWork</text><path d="M1436,60.119 C1436,82.004 1436,114.025 1436,138.784 " fill="none" style="stroke: #A80036; stroke-width: 1.0;"/><polygon fill="#A80036" points="1436,143.951,1440,134.951,1436,138.951,1432,134.951,1436,143.951" style="stroke: #A80036; stroke-width: 1.0;"/><text fill="#000000" font-family="sans-serif" font-size="13" lengthAdjust="spacingAndGlyphs" textLength="40" x="1437" y="104.4951">creator</text><path d="M1381.66,60.114 C1361.87,69.373 1339.36,80.036 1319,90 C1280.34,108.921 1237.05,130.969 1204.1,147.937 " fill="none" style="stroke: #A80036; stroke-width: 1.0;"/><polygon fill="#A80036" points="1199.32,150.403,1209.1515,149.8189,1203.7606,148.1049,1205.4746,142.714,1199.32,150.403" style="stroke: #A80036; stroke-width: 1.0;"/><text fill="#000000" font-family="sans-serif" font-size="13" lengthAdjust="spacingAndGlyphs" textLength="107" x="1320" y="104.4951">expressionOfWork</text><path d="M2389,628.555 C2389,656.597 2389,686.2775 2389,707.6449 " fill="none" style="stroke: #A80036; stroke-width: 1.0;"/><polygon fill="#A80036" points="2389,712.892,2393,703.892,2389,707.892,2385,703.892,2389,712.892" style="stroke: #A80036; stroke-width: 1.0;"/><text fill="#000000" font-family="sans-serif" font-size="13" lengthAdjust="spacingAndGlyphs" textLength="52" x="2390" y="679.4951">publisher</text><path d="M1443.99,379.136 C1420.47,387.682 1394.81,397.906 1372,409 C1337.39,425.829 1301.28,446.568 1268.51,466.734 " fill="none" style="stroke: #A80036; stroke-width: 1.0;"/><polygon fill="#A80036" points="1264.12,469.446,1273.8821,468.142,1268.38,466.8282,1269.6937,461.326,1264.12,469.446" style="stroke: #A80036; stroke-width: 1.0;"/><text fill="#000000" font-family="sans-serif" font-size="13" lengthAdjust="spacingAndGlyphs" textLength="155" x="1373" y="423.4951">manifestationOfExpression</text><path d="M1527.91,379.363 C1536.45,410.732 1551.11,464.6 1561.39,502.365 " fill="none" style="stroke: #A80036; stroke-width: 1.0;"/><polygon fill="#A80036" points="1562.75,507.351,1564.2486,497.6168,1561.4382,502.5262,1556.5288,499.7158,1562.75,507.351" style="stroke: #A80036; stroke-width: 1.0;"/><text fill="#000000" font-family="sans-serif" font-size="13" lengthAdjust="spacingAndGlyphs" textLength="53" x="1542" y="423.4951">illustrator</text><path d="M3122.17,297.194 C3120.93,334.801 3118.54,407.284 3116.66,464.186 " fill="none" style="stroke: #A80036; stroke-width: 1.0;"/><polygon fill="#A80036" points="3116.5,469.294,3120.7959,460.4314,3116.6656,464.2967,3112.8003,460.1664,3116.5,469.294" style="stroke: #A80036; stroke-width: 1.0;"/><text fill="#000000" font-family="sans-serif" font-size="13" lengthAdjust="spacingAndGlyphs" textLength="155" x="3123" y="358.4951">manifestationOfExpression</text><path d="M3206.73,60.137 C3224,68.268 3241.95,78.271 3257,90 C3277.09,105.656 3295.16,128.066 3307.91,146.015 " fill="none" style="stroke: #A80036; stroke-width: 1.0;"/><polygon fill="#A80036" points="3311.04,150.476,3309.1422,140.8117,3308.1669,146.3839,3302.5948,145.4086,3311.04,150.476" style="stroke: #A80036; stroke-width: 1.0;"/><text fill="#000000" font-family="sans-serif" font-size="13" lengthAdjust="spacingAndGlyphs" textLength="111" x="3276" y="104.4951">augmentedByWork</text><path d="M3097.96,60.215 C3083.95,69.138 3068.48,79.562 3055,90 C3035.17,105.354 3014.5,124.051 2997.7,140.041 " fill="none" style="stroke: #A80036; stroke-width: 1.0;"/><polygon fill="#A80036" points="2993.95,143.62,3003.2255,140.3087,2997.5703,140.1714,2997.7077,134.5162,2993.95,143.62" style="stroke: #A80036; stroke-width: 1.0;"/><text fill="#000000" font-family="sans-serif" font-size="13" lengthAdjust="spacingAndGlyphs" textLength="40" x="3056" y="104.4951">creator</text><path d="M3138.18,60.149 C3135.04,103.587 3128.61,192.516 3125.21,239.443 " fill="none" style="stroke: #A80036; stroke-width: 1.0;"/><polygon fill="#A80036" points="3124.83,244.677,3129.4703,235.9898,3125.1915,239.6901,3121.4912,235.4113,3124.83,244.677" style="stroke: #A80036; stroke-width: 1.0;"/><text fill="#000000" font-family="sans-serif" font-size="13" lengthAdjust="spacingAndGlyphs" textLength="107" x="3138" y="104.4951">expressionOfWork</text><path d="M639,297.194 C639,332.103 639,397.067 639,451.722 " fill="none" style="stroke: #A80036; stroke-width: 1.0;"/><polygon fill="#A80036" points="639,456.977,643,447.977,639,451.977,635,447.977,639,456.977" style="stroke: #A80036; stroke-width: 1.0;"/><text fill="#000000" font-family="sans-serif" font-size="13" lengthAdjust="spacingAndGlyphs" textLength="155" x="640" y="358.4951">manifestationOfExpression</text><path d="M1151,622.763 C1151,652.586 1151,685.0947 1151,707.957 " fill="none" style="stroke: #A80036; stroke-width: 1.0;"/><polygon fill="#A80036" points="1151,712.9734,1155,703.9734,1151,707.9734,1147,703.9734,1151,712.9734" style="stroke: #A80036; stroke-width: 1.0;"/><text fill="#000000" font-family="sans-serif" font-size="13" lengthAdjust="spacingAndGlyphs" textLength="52" x="1152" y="679.4951">publisher</text><path d="M3445.34,379.363 C3463.15,410.86 3493.79,465.04 3515.15,502.827 " fill="none" style="stroke: #A80036; stroke-width: 1.0;"/><polygon fill="#A80036" points="3517.71,507.351,3516.7522,497.5488,3515.2446,503.0011,3509.7923,501.4935,3517.71,507.351" style="stroke: #A80036; stroke-width: 1.0;"/><text fill="#000000" font-family="sans-serif" font-size="13" lengthAdjust="spacingAndGlyphs" textLength="111" x="3474" y="423.4951">writerOfIntroduction</text><path d="M3361.48,379.012 C3340.57,387.519 3317.91,397.753 3298,409 C3268.62,425.601 3238.47,446.162 3211.31,466.225 " fill="none" style="stroke: #A80036; stroke-width: 1.0;"/><polygon fill="#A80036" points="3206.98,469.44,3216.594,467.3021,3210.9993,466.4659,3211.8355,460.8712,3206.98,469.44" style="stroke: #A80036; stroke-width: 1.0;"/><text fill="#000000" font-family="sans-serif" font-size="13" lengthAdjust="spacingAndGlyphs" textLength="155" x="3299" y="423.4951">manifestationOfExpression</text><path d="M3341.9,202.502 C3360.77,234.158 3393.23,288.628 3413.33,322.349 " fill="none" style="stroke: #A80036; stroke-width: 1.0;"/><polygon fill="#A80036" points="3415.96,326.762,3414.7787,316.9842,3413.3959,322.4695,3407.9107,321.0867,3415.96,326.762" style="stroke: #A80036; stroke-width: 1.0;"/><text fill="#000000" font-family="sans-serif" font-size="13" lengthAdjust="spacingAndGlyphs" textLength="107" x="3399" y="276.4951">expressionOfWork</text><path d="M416,60.119 C416,83.847 416,119.487 416,144.872 " fill="none" style="stroke: #A80036; stroke-width: 1.0;"/><polygon fill="#A80036" points="416,150.125,420,141.125,416,145.125,412,141.125,416,150.125" style="stroke: #A80036; stroke-width: 1.0;"/><text fill="#000000" font-family="sans-serif" font-size="13" lengthAdjust="spacingAndGlyphs" textLength="111" x="417" y="104.4951">augmentedByWork</text><path d="M365.048,60.119 C322.549,81.07 261.21,111.309 211.988,135.574 " fill="none" style="stroke: #A80036; stroke-width: 1.0;"/><polygon fill="#A80036" points="207.264,137.903,217.105,137.5099,211.7484,135.6915,213.5667,130.3349,207.264,137.903" style="stroke: #A80036; stroke-width: 1.0;"/><text fill="#000000" font-family="sans-serif" font-size="13" lengthAdjust="spacingAndGlyphs" textLength="40" x="301" y="104.4951">creator</text><path d="M490.569,60.023 C507.089,67.874 523.635,77.773 537,90 C583.288,132.345 613.894,200.695 628.67,239.856 " fill="none" style="stroke: #A80036; stroke-width: 1.0;"/><polygon fill="#A80036" points="630.565,244.949,631.1749,235.119,628.8211,240.263,623.6772,237.9092,630.565,244.949" style="stroke: #A80036; stroke-width: 1.0;"/><text fill="#000000" font-family="sans-serif" font-size="13" lengthAdjust="spacingAndGlyphs" textLength="107" x="555" y="104.4951">expressionOfWork</text><path d="M2281.39,379.239 C2287.63,393.57 2296.07,411.656 2305,427 C2311.2,437.648 2318.1,448.542 2325.21,459.198 " fill="none" style="stroke: #A80036; stroke-width: 1.0;"/><polygon fill="#A80036" points="2328.06,463.428,2326.3682,453.7255,2325.2747,459.2757,2319.7245,458.1821,2328.06,463.428" style="stroke: #A80036; stroke-width: 1.0;"/><text fill="#000000" font-family="sans-serif" font-size="13" lengthAdjust="spacingAndGlyphs" textLength="155" x="2306" y="423.4951">manifestationOfExpression</text></g></svg>