<?xml version="1.0" encoding="UTF-8" standalone="yes"?><svg xmlns="http://www.w3.org/2000/svg" xmlns:xlink="http://www.w3.org/1999/xlink" height="691px" style="width:2828px;height:691px;" version="1.1" viewBox="0 0 2828 691" width="2828px"><defs><filter height="300%" id="f1" width="300%" x="-1" y="-1"><feGaussianBlur result="blurOut" stdDeviation="2.0"/><feColorMatrix in="blurOut" result="blurOut2" type="matrix" values="0 0 0 0 0 0 0 0 0 0 0 0 0 0 0 0 0 0 .4 0"/><feOffset dx="4.0" dy="4.0" in="blurOut2" result="blurOut3"/><feBlend in="SourceGraphic" in2="blurOut3" mode="normal"/></filter></defs><g><rect fill="#FFFACD" filter="url(#f1)" height="37.9102" style="stroke: #A80036; stroke-width: 1.5;" width="196" x="194" y="146"/><text fill="#000000" font-family="sans-serif" font-size="12" lengthAdjust="spacingAndGlyphs" textLength="29" x="277.5" y="159.6016">Work</text><line style="stroke: #A80036; stroke-width: 1.5;" x1="195" x2="389" y1="164.1328" y2="164.1328"/><text fill="#000000" font-family="sans-serif" font-size="10" lengthAdjust="spacingAndGlyphs" textLength="184" x="200" y="177.8008">titleOfTheWork    : "Of mice and men"</text><rect fill="#FFFACD" filter="url(#f1)" height="61.4648" style="stroke: #A80036; stroke-width: 1.5;" width="202" x="191" y="8"/><text fill="#000000" font-family="sans-serif" font-size="12" lengthAdjust="spacingAndGlyphs" textLength="39" x="272.5" y="21.6016">Person</text><line style="stroke: #A80036; stroke-width: 1.5;" x1="192" x2="392" y1="26.1328" y2="26.1328"/><text fill="#000000" font-family="sans-serif" font-size="10" lengthAdjust="spacingAndGlyphs" textLength="190" x="197" y="39.8008">nameOfThePerson    : "Steinbeck, John"</text><text fill="#000000" font-family="sans-serif" font-size="10" lengthAdjust="spacingAndGlyphs" textLength="187" x="197" y="51.5781">nameOfThePerson    : "John Steinbeck"</text><text fill="#000000" font-family="sans-serif" font-size="10" lengthAdjust="spacingAndGlyphs" textLength="189" x="197" y="63.3555">identifierForThePerson    : "pauth-016"</text><rect fill="#FFFACD" filter="url(#f1)" height="49.6875" style="stroke: #A80036; stroke-width: 1.5;" width="224" x="180" y="261"/><text fill="#000000" font-family="sans-serif" font-size="12" lengthAdjust="spacingAndGlyphs" textLength="63" x="260.5" y="274.6016">Expression</text><line style="stroke: #A80036; stroke-width: 1.5;" x1="181" x2="403" y1="279.1328" y2="279.1328"/><text fill="#000000" font-family="sans-serif" font-size="10" lengthAdjust="spacingAndGlyphs" textLength="212" x="186" y="292.8008">noteOnExpression    : "with an introduction"</text><text fill="#000000" font-family="sans-serif" font-size="10" lengthAdjust="spacingAndGlyphs" textLength="169" x="186" y="304.5781">languageOfExpression    : "English"</text><rect fill="#FFFACD" filter="url(#f1)" height="61.4648" style="stroke: #A80036; stroke-width: 1.5;" width="214" x="6" y="435.5"/><text fill="#000000" font-family="sans-serif" font-size="12" lengthAdjust="spacingAndGlyphs" textLength="39" x="93.5" y="449.1016">Person</text><line style="stroke: #A80036; stroke-width: 1.5;" x1="7" x2="219" y1="453.6328" y2="453.6328"/><text fill="#000000" font-family="sans-serif" font-size="10" lengthAdjust="spacingAndGlyphs" textLength="202" x="12" y="467.3008">nameOfThePerson    : "Shillinglaw, Susan"</text><text fill="#000000" font-family="sans-serif" font-size="10" lengthAdjust="spacingAndGlyphs" textLength="199" x="12" y="479.0781">nameOfThePerson    : "Susan Shillinglaw"</text><text fill="#000000" font-family="sans-serif" font-size="10" lengthAdjust="spacingAndGlyphs" textLength="189" x="12" y="490.8555">identifierForThePerson    : "pauth-050"</text><rect fill="#FFFACD" filter="url(#f1)" height="155.6836" style="stroke: #A80036; stroke-width: 1.5;" width="433" x="255.5" y="388"/><text fill="#000000" font-family="sans-serif" font-size="12" lengthAdjust="spacingAndGlyphs" textLength="76" x="434" y="401.6016">Manifestation</text><line style="stroke: #A80036; stroke-width: 1.5;" x1="256.5" x2="687.5" y1="406.1328" y2="406.1328"/><text fill="#000000" font-family="sans-serif" font-size="10" lengthAdjust="spacingAndGlyphs" textLength="108" x="261.5" y="419.8008">extent    : "105 pages"</text><text fill="#000000" font-family="sans-serif" font-size="10" lengthAdjust="spacingAndGlyphs" textLength="157" x="261.5" y="431.5781">termsOfAvailability    : "10 euro"</text><text fill="#000000" font-family="sans-serif" font-size="10" lengthAdjust="spacingAndGlyphs" textLength="195" x="261.5" y="443.3555">placeOfpublication    : "Harmondsworth"</text><text fill="#000000" font-family="sans-serif" font-size="10" lengthAdjust="spacingAndGlyphs" textLength="110" x="261.5" y="455.1328">dimensions    : "20 cm"</text><text fill="#000000" font-family="sans-serif" font-size="10" lengthAdjust="spacingAndGlyphs" textLength="180" x="261.5" y="466.9102">placeOfpublication    : "Great Britain"</text><text fill="#000000" font-family="sans-serif" font-size="10" lengthAdjust="spacingAndGlyphs" textLength="138" x="261.5" y="478.6875">dateOfPublication    : "2010"</text><text fill="#000000" font-family="sans-serif" font-size="10" lengthAdjust="spacingAndGlyphs" textLength="250" x="261.5" y="490.4648">identifierForTheManifestation    : "9780141185101"</text><text fill="#000000" font-family="sans-serif" font-size="10" lengthAdjust="spacingAndGlyphs" textLength="421" x="261.5" y="502.2422">statementOfResponsibilityRelatingToTitleProper    : "John Steinbeck; Susan Shillinglaw"</text><text fill="#000000" font-family="sans-serif" font-size="10" lengthAdjust="spacingAndGlyphs" textLength="129" x="261.5" y="514.0195">title    : "Of mice and men"</text><text fill="#000000" font-family="sans-serif" font-size="10" lengthAdjust="spacingAndGlyphs" textLength="105" x="261.5" y="525.7969">carrierType    : "book"</text><text fill="#000000" font-family="sans-serif" font-size="10" lengthAdjust="spacingAndGlyphs" textLength="274" x="261.5" y="537.5742">identifierForTheManifestation    : "978-0-14-118510-1"</text><rect fill="#FFFACD" filter="url(#f1)" height="37.9102" style="stroke: #A80036; stroke-width: 1.5;" width="238" x="353" y="632.5"/><text fill="#000000" font-family="sans-serif" font-size="12" lengthAdjust="spacingAndGlyphs" textLength="86" x="429" y="646.1016">CorporateBody</text><line style="stroke: #A80036; stroke-width: 1.5;" x1="354" x2="590" y1="650.6328" y2="650.6328"/><text fill="#000000" font-family="sans-serif" font-size="10" lengthAdjust="spacingAndGlyphs" textLength="226" x="359" y="664.3008">nameOfTheCorporateBody    : "Penguin books"</text><rect fill="#FFFACD" filter="url(#f1)" height="37.9102" style="stroke: #A80036; stroke-width: 1.5;" width="151" x="729.5" y="146"/><text fill="#000000" font-family="sans-serif" font-size="12" lengthAdjust="spacingAndGlyphs" textLength="29" x="790.5" y="159.6016">Work</text><line style="stroke: #A80036; stroke-width: 1.5;" x1="730.5" x2="879.5" y1="164.1328" y2="164.1328"/><text fill="#000000" font-family="sans-serif" font-size="10" lengthAdjust="spacingAndGlyphs" textLength="139" x="735.5" y="177.8008">titleOfTheWork    : "Romans"</text><rect fill="#FFFACD" filter="url(#f1)" height="49.6875" style="stroke: #A80036; stroke-width: 1.5;" width="191" x="439.5" y="261"/><text fill="#000000" font-family="sans-serif" font-size="12" lengthAdjust="spacingAndGlyphs" textLength="29" x="520.5" y="274.6016">Work</text><line style="stroke: #A80036; stroke-width: 1.5;" x1="440.5" x2="629.5" y1="279.1328" y2="279.1328"/><text fill="#000000" font-family="sans-serif" font-size="10" lengthAdjust="spacingAndGlyphs" textLength="179" x="445.5" y="292.8008">identifierForTheWork    : "tauth-003"</text><text fill="#000000" font-family="sans-serif" font-size="10" lengthAdjust="spacingAndGlyphs" textLength="152" x="445.5" y="304.5781">titleOfTheWork    : "Philomena"</text><rect fill="#FFFACD" filter="url(#f1)" height="37.9102" style="stroke: #A80036; stroke-width: 1.5;" width="279" x="665.5" y="267"/><text fill="#000000" font-family="sans-serif" font-size="12" lengthAdjust="spacingAndGlyphs" textLength="47" x="781.5" y="280.6016">Concept</text><line style="stroke: #A80036; stroke-width: 1.5;" x1="666.5" x2="943.5" y1="285.1328" y2="285.1328"/><text fill="#000000" font-family="sans-serif" font-size="10" lengthAdjust="spacingAndGlyphs" textLength="267" x="671.5" y="298.8008">hasTermForTheConcept    : "Romans de la Table ronde"</text><rect fill="#FFFACD" filter="url(#f1)" height="49.6875" style="stroke: #A80036; stroke-width: 1.5;" width="220" x="695" y="13.5"/><text fill="#000000" font-family="sans-serif" font-size="12" lengthAdjust="spacingAndGlyphs" textLength="39" x="785.5" y="27.1016">Person</text><line style="stroke: #A80036; stroke-width: 1.5;" x1="696" x2="914" y1="31.6328" y2="31.6328"/><text fill="#000000" font-family="sans-serif" font-size="10" lengthAdjust="spacingAndGlyphs" textLength="208" x="701" y="45.3008">nameOfThePerson    : "Chretien de Troyes"</text><text fill="#000000" font-family="sans-serif" font-size="10" lengthAdjust="spacingAndGlyphs" textLength="189" x="701" y="57.0781">identifierForThePerson    : "pauth-004"</text><rect fill="#FFFACD" filter="url(#f1)" height="49.6875" style="stroke: #A80036; stroke-width: 1.5;" width="245" x="979.5" y="261"/><text fill="#000000" font-family="sans-serif" font-size="12" lengthAdjust="spacingAndGlyphs" textLength="63" x="1070.5" y="274.6016">Expression</text><line style="stroke: #A80036; stroke-width: 1.5;" x1="980.5" x2="1223.5" y1="279.1328" y2="279.1328"/><text fill="#000000" font-family="sans-serif" font-size="10" lengthAdjust="spacingAndGlyphs" textLength="233" x="985.5" y="292.8008">noteOnExpression    : "in appendice, Philomena"</text><text fill="#000000" font-family="sans-serif" font-size="10" lengthAdjust="spacingAndGlyphs" textLength="167" x="985.5" y="304.5781">languageOfExpression    : "French"</text><rect fill="#FFFACD" filter="url(#f1)" height="143.9063" style="stroke: #A80036; stroke-width: 1.5;" width="365" x="919.5" y="394"/><text fill="#000000" font-family="sans-serif" font-size="12" lengthAdjust="spacingAndGlyphs" textLength="76" x="1064" y="407.6016">Manifestation</text><line style="stroke: #A80036; stroke-width: 1.5;" x1="920.5" x2="1283.5" y1="412.1328" y2="412.1328"/><text fill="#000000" font-family="sans-serif" font-size="10" lengthAdjust="spacingAndGlyphs" textLength="138" x="925.5" y="425.8008">dateOfPublication    : "1994"</text><text fill="#000000" font-family="sans-serif" font-size="10" lengthAdjust="spacingAndGlyphs" textLength="142" x="925.5" y="437.5781">placeOfpublication    : "Paris"</text><text fill="#000000" font-family="sans-serif" font-size="10" lengthAdjust="spacingAndGlyphs" textLength="110" x="925.5" y="449.3555">dimensions    : "19 cm"</text><text fill="#000000" font-family="sans-serif" font-size="10" lengthAdjust="spacingAndGlyphs" textLength="250" x="925.5" y="461.1328">otherTitleInformation    : "in appendice, Philomena"</text><text fill="#000000" font-family="sans-serif" font-size="10" lengthAdjust="spacingAndGlyphs" textLength="353" x="925.5" y="472.9102">statementOfResponsibilityRelatingToTitleProper    : "Chretien de Troyes"</text><text fill="#000000" font-family="sans-serif" font-size="10" lengthAdjust="spacingAndGlyphs" textLength="84" x="925.5" y="484.6875">title    : "Romans"</text><text fill="#000000" font-family="sans-serif" font-size="10" lengthAdjust="spacingAndGlyphs" textLength="161" x="925.5" y="496.4648">termsOfAvailability    : "120,00 F"</text><text fill="#000000" font-family="sans-serif" font-size="10" lengthAdjust="spacingAndGlyphs" textLength="249" x="925.5" y="508.2422">noteOnCarrier    : "Cover with colorful illustrations"</text><text fill="#000000" font-family="sans-serif" font-size="10" lengthAdjust="spacingAndGlyphs" textLength="250" x="925.5" y="520.0195">identifierForTheManifestation    : "2-253-13222-5"</text><text fill="#000000" font-family="sans-serif" font-size="10" lengthAdjust="spacingAndGlyphs" textLength="114" x="925.5" y="531.7969">extent    : "1279 pages"</text><rect fill="#FFFACD" filter="url(#f1)" height="37.9102" style="stroke: #A80036; stroke-width: 1.5;" width="303" x="950.5" y="632.5"/><text fill="#000000" font-family="sans-serif" font-size="12" lengthAdjust="spacingAndGlyphs" textLength="86" x="1059" y="646.1016">CorporateBody</text><line style="stroke: #A80036; stroke-width: 1.5;" x1="951.5" x2="1252.5" y1="650.6328" y2="650.6328"/><text fill="#000000" font-family="sans-serif" font-size="10" lengthAdjust="spacingAndGlyphs" textLength="291" x="956.5" y="664.3008">nameOfTheCorporateBody    : "Librairie Generale Francaise"</text><rect fill="#FFFACD" filter="url(#f1)" height="37.9102" style="stroke: #A80036; stroke-width: 1.5;" width="313" x="1326.5" y="146"/><text fill="#000000" font-family="sans-serif" font-size="12" lengthAdjust="spacingAndGlyphs" textLength="29" x="1468.5" y="159.6016">Work</text><line style="stroke: #A80036; stroke-width: 1.5;" x1="1327.5" x2="1638.5" y1="164.1328" y2="164.1328"/><text fill="#000000" font-family="sans-serif" font-size="10" lengthAdjust="spacingAndGlyphs" textLength="301" x="1332.5" y="177.8008">titleOfTheWork    : "Etrange cas du Dr Jekyll et de M. Hyde (L')"</text><rect fill="#FFFACD" filter="url(#f1)" height="49.6875" style="stroke: #A80036; stroke-width: 1.5;" width="240" x="1363" y="13.5"/><text fill="#000000" font-family="sans-serif" font-size="12" lengthAdjust="spacingAndGlyphs" textLength="39" x="1463.5" y="27.1016">Person</text><line style="stroke: #A80036; stroke-width: 1.5;" x1="1364" x2="1602" y1="31.6328" y2="31.6328"/><text fill="#000000" font-family="sans-serif" font-size="10" lengthAdjust="spacingAndGlyphs" textLength="228" x="1369" y="45.3008">nameOfThePerson    : "Robert Louis Stevenson"</text><text fill="#000000" font-family="sans-serif" font-size="10" lengthAdjust="spacingAndGlyphs" textLength="189" x="1369" y="57.0781">identifierForThePerson    : "pauth-003"</text><rect fill="#FFFACD" filter="url(#f1)" height="37.9102" style="stroke: #A80036; stroke-width: 1.5;" width="208" x="1379" y="267"/><text fill="#000000" font-family="sans-serif" font-size="12" lengthAdjust="spacingAndGlyphs" textLength="63" x="1451.5" y="280.6016">Expression</text><line style="stroke: #A80036; stroke-width: 1.5;" x1="1380" x2="1586" y1="285.1328" y2="285.1328"/><text fill="#000000" font-family="sans-serif" font-size="10" lengthAdjust="spacingAndGlyphs" textLength="196" x="1385" y="298.8008">noteOnExpression    : "with illustrations"</text><rect fill="#FFFACD" filter="url(#f1)" height="34.1328" style="stroke: #A80036; stroke-width: 1.5;" width="77" x="1350.5" y="449"/><text fill="#000000" font-family="sans-serif" font-size="12" lengthAdjust="spacingAndGlyphs" textLength="63" x="1357.5" y="462.6016">Expression</text><line style="stroke: #A80036; stroke-width: 1.5;" x1="1351.5" x2="1426.5" y1="467.1328" y2="467.1328"/><rect fill="#FFFACD" filter="url(#f1)" height="61.4648" style="stroke: #A80036; stroke-width: 1.5;" width="201" x="1288.5" y="621"/><text fill="#000000" font-family="sans-serif" font-size="12" lengthAdjust="spacingAndGlyphs" textLength="39" x="1369.5" y="634.6016">Person</text><line style="stroke: #A80036; stroke-width: 1.5;" x1="1289.5" x2="1488.5" y1="639.1328" y2="639.1328"/><text fill="#000000" font-family="sans-serif" font-size="10" lengthAdjust="spacingAndGlyphs" textLength="188" x="1294.5" y="652.8008">nameOfThePerson    : "Place, Francois"</text><text fill="#000000" font-family="sans-serif" font-size="10" lengthAdjust="spacingAndGlyphs" textLength="185" x="1294.5" y="664.5781">nameOfThePerson    : "Francois Place"</text><text fill="#000000" font-family="sans-serif" font-size="10" lengthAdjust="spacingAndGlyphs" textLength="189" x="1294.5" y="676.3555">identifierForThePerson    : "pauth-051"</text><rect fill="#FFFACD" filter="url(#f1)" height="132.1289" style="stroke: #A80036; stroke-width: 1.5;" width="535" x="1462.5" y="400"/><text fill="#000000" font-family="sans-serif" font-size="12" lengthAdjust="spacingAndGlyphs" textLength="76" x="1692" y="413.6016">Manifestation</text><line style="stroke: #A80036; stroke-width: 1.5;" x1="1463.5" x2="1996.5" y1="418.1328" y2="418.1328"/><text fill="#000000" font-family="sans-serif" font-size="10" lengthAdjust="spacingAndGlyphs" textLength="523" x="1468.5" y="431.8008">statementOfResponsibilityRelatingToTitleProper    : "Robert Louis Stevenson; illustrations by Francois Place"</text><text fill="#000000" font-family="sans-serif" font-size="10" lengthAdjust="spacingAndGlyphs" textLength="110" x="1468.5" y="443.5781">dimensions    : "18 cm"</text><text fill="#000000" font-family="sans-serif" font-size="10" lengthAdjust="spacingAndGlyphs" textLength="311" x="1468.5" y="455.3555">noteOnCarrier    : "Illustrations, cover with colorful illustrations"</text><text fill="#000000" font-family="sans-serif" font-size="10" lengthAdjust="spacingAndGlyphs" textLength="138" x="1468.5" y="467.1328">dateOfPublication    : "2008"</text><text fill="#000000" font-family="sans-serif" font-size="10" lengthAdjust="spacingAndGlyphs" textLength="166" x="1468.5" y="478.9102">termsOfAvailability    : "5.80 euro"</text><text fill="#000000" font-family="sans-serif" font-size="10" lengthAdjust="spacingAndGlyphs" textLength="274" x="1468.5" y="490.6875">identifierForTheManifestation    : "978-2-07-062231-3"</text><text fill="#000000" font-family="sans-serif" font-size="10" lengthAdjust="spacingAndGlyphs" textLength="108" x="1468.5" y="502.4648">extent    : "144 pages"</text><text fill="#000000" font-family="sans-serif" font-size="10" lengthAdjust="spacingAndGlyphs" textLength="246" x="1468.5" y="514.2422">title    : "Etrange cas du Dr Jekyll et de M. Hyde (L')"</text><text fill="#000000" font-family="sans-serif" font-size="10" lengthAdjust="spacingAndGlyphs" textLength="142" x="1468.5" y="526.0195">placeOfpublication    : "Paris"</text><rect fill="#FFFACD" filter="url(#f1)" height="37.9102" style="stroke: #A80036; stroke-width: 1.5;" width="214" x="1623" y="632.5"/><text fill="#000000" font-family="sans-serif" font-size="12" lengthAdjust="spacingAndGlyphs" textLength="86" x="1687" y="646.1016">CorporateBody</text><line style="stroke: #A80036; stroke-width: 1.5;" x1="1624" x2="1836" y1="650.6328" y2="650.6328"/><text fill="#000000" font-family="sans-serif" font-size="10" lengthAdjust="spacingAndGlyphs" textLength="202" x="1629" y="664.3008">nameOfTheCorporateBody    : "Gallimard"</text><rect fill="#FFFACD" filter="url(#f1)" height="37.9102" style="stroke: #A80036; stroke-width: 1.5;" width="142" x="2213" y="146"/><text fill="#000000" font-family="sans-serif" font-size="12" lengthAdjust="spacingAndGlyphs" textLength="29" x="2269.5" y="159.6016">Work</text><line style="stroke: #A80036; stroke-width: 1.5;" x1="2214" x2="2354" y1="164.1328" y2="164.1328"/><text fill="#000000" font-family="sans-serif" font-size="10" lengthAdjust="spacingAndGlyphs" textLength="130" x="2219" y="177.8008">titleOfTheWork    : "Essais"</text><rect fill="#FFFACD" filter="url(#f1)" height="49.6875" style="stroke: #A80036; stroke-width: 1.5;" width="230" x="2169" y="13.5"/><text fill="#000000" font-family="sans-serif" font-size="12" lengthAdjust="spacingAndGlyphs" textLength="39" x="2264.5" y="27.1016">Person</text><line style="stroke: #A80036; stroke-width: 1.5;" x1="2170" x2="2398" y1="31.6328" y2="31.6328"/><text fill="#000000" font-family="sans-serif" font-size="10" lengthAdjust="spacingAndGlyphs" textLength="218" x="2175" y="45.3008">nameOfThePerson    : "Michel de Montaigne"</text><text fill="#000000" font-family="sans-serif" font-size="10" lengthAdjust="spacingAndGlyphs" textLength="189" x="2175" y="57.0781">identifierForThePerson    : "pauth-007"</text><rect fill="#FFFACD" filter="url(#f1)" height="49.6875" style="stroke: #A80036; stroke-width: 1.5;" width="224" x="2172" y="261"/><text fill="#000000" font-family="sans-serif" font-size="12" lengthAdjust="spacingAndGlyphs" textLength="63" x="2252.5" y="274.6016">Expression</text><line style="stroke: #A80036; stroke-width: 1.5;" x1="2173" x2="2395" y1="279.1328" y2="279.1328"/><text fill="#000000" font-family="sans-serif" font-size="10" lengthAdjust="spacingAndGlyphs" textLength="212" x="2178" y="292.8008">noteOnExpression    : "with an introduction"</text><text fill="#000000" font-family="sans-serif" font-size="10" lengthAdjust="spacingAndGlyphs" textLength="167" x="2178" y="304.5781">languageOfExpression    : "French"</text><rect fill="#FFFACD" filter="url(#f1)" height="61.4648" style="stroke: #A80036; stroke-width: 1.5;" width="213" x="2032.5" y="435.5"/><text fill="#000000" font-family="sans-serif" font-size="12" lengthAdjust="spacingAndGlyphs" textLength="39" x="2119.5" y="449.1016">Person</text><line style="stroke: #A80036; stroke-width: 1.5;" x1="2033.5" x2="2244.5" y1="453.6328" y2="453.6328"/><text fill="#000000" font-family="sans-serif" font-size="10" lengthAdjust="spacingAndGlyphs" textLength="201" x="2038.5" y="467.3008">nameOfThePerson    : "Micha, Alexandre"</text><text fill="#000000" font-family="sans-serif" font-size="10" lengthAdjust="spacingAndGlyphs" textLength="198" x="2038.5" y="479.0781">nameOfThePerson    : "Alexandre Micha"</text><text fill="#000000" font-family="sans-serif" font-size="10" lengthAdjust="spacingAndGlyphs" textLength="189" x="2038.5" y="490.8555">identifierForThePerson    : "pauth-028"</text><rect fill="#FFFACD" filter="url(#f1)" height="132.1289" style="stroke: #A80036; stroke-width: 1.5;" width="539" x="2280.5" y="400"/><text fill="#000000" font-family="sans-serif" font-size="12" lengthAdjust="spacingAndGlyphs" textLength="76" x="2512" y="413.6016">Manifestation</text><line style="stroke: #A80036; stroke-width: 1.5;" x1="2281.5" x2="2818.5" y1="418.1328" y2="418.1328"/><text fill="#000000" font-family="sans-serif" font-size="10" lengthAdjust="spacingAndGlyphs" textLength="75" x="2286.5" y="431.8008">title    : "Essais"</text><text fill="#000000" font-family="sans-serif" font-size="10" lengthAdjust="spacingAndGlyphs" textLength="138" x="2286.5" y="443.5781">dateOfPublication    : "1969"</text><text fill="#000000" font-family="sans-serif" font-size="10" lengthAdjust="spacingAndGlyphs" textLength="108" x="2286.5" y="455.3555">extent    : "443 pages"</text><text fill="#000000" font-family="sans-serif" font-size="10" lengthAdjust="spacingAndGlyphs" textLength="110" x="2286.5" y="467.1328">dimensions    : "18 cm"</text><text fill="#000000" font-family="sans-serif" font-size="10" lengthAdjust="spacingAndGlyphs" textLength="142" x="2286.5" y="478.9102">placeOfpublication    : "Paris"</text><text fill="#000000" font-family="sans-serif" font-size="10" lengthAdjust="spacingAndGlyphs" textLength="166" x="2286.5" y="490.6875">termsOfAvailability    : "5.80 euro"</text><text fill="#000000" font-family="sans-serif" font-size="10" lengthAdjust="spacingAndGlyphs" textLength="527" x="2286.5" y="502.4648">statementOfResponsibilityRelatingToTitleProper    : "Michel de Montaigne; Introduction by Alexandre Micha"</text><text fill="#000000" font-family="sans-serif" font-size="10" lengthAdjust="spacingAndGlyphs" textLength="249" x="2286.5" y="514.2422">noteOnCarrier    : "Cover with colorful illustrations"</text><text fill="#000000" font-family="sans-serif" font-size="10" lengthAdjust="spacingAndGlyphs" textLength="274" x="2286.5" y="526.0195">identifierForTheManifestation    : "978-2-08-070210-4"</text><rect fill="#FFFACD" filter="url(#f1)" height="37.9102" style="stroke: #A80036; stroke-width: 1.5;" width="266" x="2417" y="632.5"/><text fill="#000000" font-family="sans-serif" font-size="12" lengthAdjust="spacingAndGlyphs" textLength="86" x="2507" y="646.1016">CorporateBody</text><line style="stroke: #A80036; stroke-width: 1.5;" x1="2418" x2="2682" y1="650.6328" y2="650.6328"/><text fill="#000000" font-family="sans-serif" font-size="10" lengthAdjust="spacingAndGlyphs" textLength="254" x="2423" y="664.3008">nameOfTheCorporateBody    : "Garnier-Flammarion"</text><path d="M292,74.166 C292,97.435 292,127.15 292,145.884 " fill="none" style="stroke: #A80036; stroke-width: 1.0;"/><polygon fill="#A80036" points="292,69.005,288,78.005,292,74.005,296,78.005,292,69.005" style="stroke: #A80036; stroke-width: 1.0;"/><text fill="#000000" font-family="sans-serif" font-size="13" lengthAdjust="spacingAndGlyphs" textLength="44" x="293" y="112.5684">creator</text><path d="M292,184.074 C292,203.095 292,233.329 292,255.753 " fill="none" style="stroke: #A80036; stroke-width: 1.0;"/><polygon fill="#A80036" points="292,260.986,296,251.986,292,255.986,288,251.986,292,260.986" style="stroke: #A80036; stroke-width: 1.0;"/><text fill="#000000" font-family="sans-serif" font-size="13" lengthAdjust="spacingAndGlyphs" textLength="116" x="293" y="227.5684">expressionOfWork</text><path d="M248.061,311.243 C234.498,319.748 219.988,329.961 208,341 C178.863,367.83 152.051,404.406 134.395,430.875 " fill="none" style="stroke: #A80036; stroke-width: 1.0;"/><polygon fill="#A80036" points="131.424,435.364,139.7269,430.0667,134.1836,431.1945,133.0558,425.6513,131.424,435.364" style="stroke: #A80036; stroke-width: 1.0;"/><text fill="#000000" font-family="sans-serif" font-size="13" lengthAdjust="spacingAndGlyphs" textLength="129" x="209" y="354.5684">writerOfIntroduction</text><path d="M316.276,311.006 C335.47,329.987 363.433,357.64 390.385,384.292 " fill="none" style="stroke: #A80036; stroke-width: 1.0;"/><polygon fill="#A80036" points="394.008,387.875,390.4205,378.7028,390.4525,384.3595,384.7958,384.3915,394.008,387.875" style="stroke: #A80036; stroke-width: 1.0;"/><text fill="#000000" font-family="sans-serif" font-size="13" lengthAdjust="spacingAndGlyphs" textLength="171" x="362" y="354.5684">manifestationOfExpression</text><path d="M472,544.023 C472,574.041 472,606.2195 472,627.2485 " fill="none" style="stroke: #A80036; stroke-width: 1.0;"/><polygon fill="#A80036" points="472,632.3465,476,623.3465,472,627.3465,468,623.3465,472,632.3465" style="stroke: #A80036; stroke-width: 1.0;"/><text fill="#000000" font-family="sans-serif" font-size="13" lengthAdjust="spacingAndGlyphs" textLength="59" x="473" y="587.5684">publisher</text><path d="M763.993,184.074 C718.741,204.018 645.519,236.29 594.083,258.96 " fill="none" style="stroke: #A80036; stroke-width: 1.0;"/><polygon fill="#A80036" points="589.486,260.986,599.3348,261.0172,594.0615,258.9698,596.1088,253.6964,589.486,260.986" style="stroke: #A80036; stroke-width: 1.0;"/><text fill="#000000" font-family="sans-serif" font-size="13" lengthAdjust="spacingAndGlyphs" textLength="90" x="696" y="227.5684">appendixWork</text><path d="M805,184.074 C805,204.78 805,238.775 805,261.517 " fill="none" style="stroke: #A80036; stroke-width: 1.0;"/><polygon fill="#A80036" points="805,266.756,809,257.756,805,261.756,801,257.756,805,266.756" style="stroke: #A80036; stroke-width: 1.0;"/><text fill="#000000" font-family="sans-serif" font-size="13" lengthAdjust="spacingAndGlyphs" textLength="136" x="806" y="227.5684">hasAsSubjectConcept</text><path d="M805,68.747 C805,92.58 805,125.493 805,145.73 " fill="none" style="stroke: #A80036; stroke-width: 1.0;"/><polygon fill="#A80036" points="805,63.505,801,72.505,805,68.505,809,72.505,805,63.505" style="stroke: #A80036; stroke-width: 1.0;"/><text fill="#000000" font-family="sans-serif" font-size="13" lengthAdjust="spacingAndGlyphs" textLength="44" x="806" y="112.5684">creator</text><path d="M865.615,184.105 C892.096,192.481 923.356,203.004 951,214 C984.599,227.365 1021.33,244.576 1050.15,258.706 " fill="none" style="stroke: #A80036; stroke-width: 1.0;"/><polygon fill="#A80036" points="1054.71,260.946,1048.4093,253.3762,1050.2262,258.7334,1044.8691,260.5503,1054.71,260.946" style="stroke: #A80036; stroke-width: 1.0;"/><text fill="#000000" font-family="sans-serif" font-size="13" lengthAdjust="spacingAndGlyphs" textLength="116" x="990" y="227.5684">expressionOfWork</text><path d="M1102,311.006 C1102,331.017 1102,360.667 1102,388.621 " fill="none" style="stroke: #A80036; stroke-width: 1.0;"/><polygon fill="#A80036" points="1102,393.818,1106,384.818,1102,388.818,1098,384.818,1102,393.818" style="stroke: #A80036; stroke-width: 1.0;"/><text fill="#000000" font-family="sans-serif" font-size="13" lengthAdjust="spacingAndGlyphs" textLength="171" x="1103" y="354.5684">manifestationOfExpression</text><path d="M1102,538.209 C1102,569.733 1102,604.6668 1102,627.0682 " fill="none" style="stroke: #A80036; stroke-width: 1.0;"/><polygon fill="#A80036" points="1102,632.2061,1106,623.2061,1102,627.2061,1098,623.2061,1102,632.2061" style="stroke: #A80036; stroke-width: 1.0;"/><text fill="#000000" font-family="sans-serif" font-size="13" lengthAdjust="spacingAndGlyphs" textLength="59" x="1103" y="587.5684">publisher</text><path d="M1483,68.747 C1483,92.58 1483,125.493 1483,145.73 " fill="none" style="stroke: #A80036; stroke-width: 1.0;"/><polygon fill="#A80036" points="1483,63.505,1479,72.505,1483,68.505,1487,72.505,1483,63.505" style="stroke: #A80036; stroke-width: 1.0;"/><text fill="#000000" font-family="sans-serif" font-size="13" lengthAdjust="spacingAndGlyphs" textLength="44" x="1484" y="112.5684">creator</text><path d="M1483,184.074 C1483,204.78 1483,238.775 1483,261.517 " fill="none" style="stroke: #A80036; stroke-width: 1.0;"/><polygon fill="#A80036" points="1483,266.756,1487,257.756,1483,261.756,1479,257.756,1483,266.756" style="stroke: #A80036; stroke-width: 1.0;"/><text fill="#000000" font-family="sans-serif" font-size="13" lengthAdjust="spacingAndGlyphs" textLength="116" x="1484" y="227.5684">expressionOfWork</text><path d="M1473.47,305.047 C1455.87,338.374 1418.38,409.368 1399.84,444.472 " fill="none" style="stroke: #A80036; stroke-width: 1.0;"/><polygon fill="#A80036" points="1397.46,448.977,1405.2048,442.8927,1399.7985,444.5575,1398.1336,439.1512,1397.46,448.977" style="stroke: #A80036; stroke-width: 1.0;"/><text fill="#000000" font-family="sans-serif" font-size="13" lengthAdjust="spacingAndGlyphs" textLength="145" x="1454" y="354.5684">illustrationsExpression</text><path d="M1389,483.284 C1389,512.833 1389,575.887 1389,615.5648 " fill="none" style="stroke: #A80036; stroke-width: 1.0;"/><polygon fill="#A80036" points="1389,620.7625,1393,611.7625,1389,615.7625,1385,611.7625,1389,620.7625" style="stroke: #A80036; stroke-width: 1.0;"/><text fill="#000000" font-family="sans-serif" font-size="13" lengthAdjust="spacingAndGlyphs" textLength="62" x="1390" y="587.5684">illustrator</text><path d="M1537.04,305.074 C1559.98,314.048 1586.35,326.169 1608,341 C1630.54,356.442 1652.38,376.456 1671.21,395.881 " fill="none" style="stroke: #A80036; stroke-width: 1.0;"/><polygon fill="#A80036" points="1674.94,399.757,1671.5817,390.4984,1671.473,396.1542,1665.8172,396.0456,1674.94,399.757" style="stroke: #A80036; stroke-width: 1.0;"/><text fill="#000000" font-family="sans-serif" font-size="13" lengthAdjust="spacingAndGlyphs" textLength="171" x="1628" y="354.5684">manifestationOfExpression</text><path d="M1730,532.212 C1730,565.157 1730,603.0971 1730,626.9379 " fill="none" style="stroke: #A80036; stroke-width: 1.0;"/><polygon fill="#A80036" points="1730,632.0969,1734,623.0969,1730,627.0969,1726,623.0969,1730,632.0969" style="stroke: #A80036; stroke-width: 1.0;"/><text fill="#000000" font-family="sans-serif" font-size="13" lengthAdjust="spacingAndGlyphs" textLength="59" x="1731" y="587.5684">publisher</text><path d="M2284,68.747 C2284,92.58 2284,125.493 2284,145.73 " fill="none" style="stroke: #A80036; stroke-width: 1.0;"/><polygon fill="#A80036" points="2284,63.505,2280,72.505,2284,68.505,2288,72.505,2284,63.505" style="stroke: #A80036; stroke-width: 1.0;"/><text fill="#000000" font-family="sans-serif" font-size="13" lengthAdjust="spacingAndGlyphs" textLength="44" x="2285" y="112.5684">creator</text><path d="M2284,184.074 C2284,203.095 2284,233.329 2284,255.753 " fill="none" style="stroke: #A80036; stroke-width: 1.0;"/><polygon fill="#A80036" points="2284,260.986,2288,251.986,2284,255.986,2280,251.986,2284,260.986" style="stroke: #A80036; stroke-width: 1.0;"/><text fill="#000000" font-family="sans-serif" font-size="13" lengthAdjust="spacingAndGlyphs" textLength="116" x="2285" y="227.5684">expressionOfWork</text><path d="M2264.44,311.006 C2239.19,342.01 2195.08,396.152 2166.47,431.277 " fill="none" style="stroke: #A80036; stroke-width: 1.0;"/><polygon fill="#A80036" points="2163.06,435.463,2171.8408,431.0023,2166.2138,431.5831,2165.633,425.9562,2163.06,435.463" style="stroke: #A80036; stroke-width: 1.0;"/><text fill="#000000" font-family="sans-serif" font-size="13" lengthAdjust="spacingAndGlyphs" textLength="129" x="2239" y="354.5684">writerOfIntroduction</text><path d="M2327.58,311.156 C2343.35,320.196 2361.16,330.761 2377,341 C2403.95,358.427 2432.53,378.302 2458.53,396.958 " fill="none" style="stroke: #A80036; stroke-width: 1.0;"/><polygon fill="#A80036" points="2462.68,399.941,2457.7222,391.431,2458.6254,397.0153,2453.0411,397.9184,2462.68,399.941" style="stroke: #A80036; stroke-width: 1.0;"/><text fill="#000000" font-family="sans-serif" font-size="13" lengthAdjust="spacingAndGlyphs" textLength="171" x="2403" y="354.5684">manifestationOfExpression</text><path d="M2550,532.212 C2550,565.157 2550,603.0971 2550,626.9379 " fill="none" style="stroke: #A80036; stroke-width: 1.0;"/><polygon fill="#A80036" points="2550,632.0969,2554,623.0969,2550,627.0969,2546,623.0969,2550,632.0969" style="stroke: #A80036; stroke-width: 1.0;"/><text fill="#000000" font-family="sans-serif" font-size="13" lengthAdjust="spacingAndGlyphs" textLength="59" x="2551" y="587.5684">publisher</text></g></svg>